<mxfile host="app.diagrams.net" modified="2024-01-22T12:50:01.750Z" agent="Mozilla/5.0 (Windows NT 10.0; Win64; x64) AppleWebKit/537.36 (KHTML, like Gecko) Chrome/120.0.0.0 Safari/537.36" version="22.1.21" etag="H4_HcJM8CHwuWeqXT_LK" type="github">
  <diagram name="Page-1" id="CwEPyMGScc4ShJWD1v5X">
    <mxGraphModel>
      <root>
        <mxCell id="0" />
        <mxCell id="1" parent="0" />
      </root>
    </mxGraphModel>
  </diagram>
</mxfile>
